<mxfile host="65bd71144e">
    <diagram id="yZfw5un2nrPiN0kNULLW" name="Page-1">
        <mxGraphModel dx="650" dy="528" grid="1" gridSize="10" guides="1" tooltips="1" connect="1" arrows="1" fold="1" page="1" pageScale="1" pageWidth="850" pageHeight="1100" math="0" shadow="0">
            <root>
                <mxCell id="0"/>
                <mxCell id="1" parent="0"/>
                <mxCell id="2" value="Text" style="text;html=1;align=center;verticalAlign=middle;resizable=0;points=[];autosize=1;strokeColor=none;fillColor=none;" vertex="1" parent="1">
                    <mxGeometry x="245" y="545" width="50" height="30" as="geometry"/>
                </mxCell>
                <mxCell id="3" value="users" style="swimlane;childLayout=stackLayout;horizontal=1;startSize=30;horizontalStack=0;rounded=1;fontSize=14;fontStyle=0;strokeWidth=2;resizeParent=0;resizeLast=1;shadow=0;dashed=0;align=center;" vertex="1" parent="1">
                    <mxGeometry x="245" y="140" width="140" height="190" as="geometry"/>
                </mxCell>
                <mxCell id="4" value="Guid     Id&#10;string    Firstname&#10;string?    Lastname&#10;string     Username&#10;string?    Bio&#10;string     PasswordHash&#10;string    Gender&#10;byte?     Age&#10;string?    ProfilePhoto&#10;List&lt;user_chat&gt; Chats&#10;&#10;&#10;" style="align=left;strokeColor=none;fillColor=none;spacingLeft=4;fontSize=12;verticalAlign=top;resizable=0;rotatable=0;part=1;" vertex="1" parent="3">
                    <mxGeometry y="30" width="140" height="160" as="geometry"/>
                </mxCell>
                <mxCell id="6" value="user_chat" style="swimlane;childLayout=stackLayout;horizontal=1;startSize=30;horizontalStack=0;rounded=1;fontSize=14;fontStyle=0;strokeWidth=2;resizeParent=0;resizeLast=1;shadow=0;dashed=0;align=center;" vertex="1" parent="1">
                    <mxGeometry x="440" y="410" width="140" height="120" as="geometry"/>
                </mxCell>
                <mxCell id="7" value="Guid    Id&#10;Guid    UserId&#10;User    User&#10;Guid    ChatId&#10;User    Chat" style="align=left;strokeColor=none;fillColor=none;spacingLeft=4;fontSize=12;verticalAlign=top;resizable=0;rotatable=0;part=1;" vertex="1" parent="6">
                    <mxGeometry y="30" width="140" height="90" as="geometry"/>
                </mxCell>
                <mxCell id="8" value="chat" style="swimlane;childLayout=stackLayout;horizontal=1;startSize=30;horizontalStack=0;rounded=1;fontSize=14;fontStyle=0;strokeWidth=2;resizeParent=0;resizeLast=1;shadow=0;dashed=0;align=center;" vertex="1" parent="1">
                    <mxGeometry x="640" y="140" width="140" height="190" as="geometry"/>
                </mxCell>
                <mxCell id="9" value="Guid     Id&#10;string    Firstname&#10;string?    Lastname&#10;string     Username&#10;string?    Bio&#10;string     PasswordHash&#10;string    Gender&#10;byte?     Age&#10;string?    ProfilePhoto&#10;List&lt;user_chat&gt; Chats&#10;&#10;&#10;" style="align=left;strokeColor=none;fillColor=none;spacingLeft=4;fontSize=12;verticalAlign=top;resizable=0;rotatable=0;part=1;" vertex="1" parent="8">
                    <mxGeometry y="30" width="140" height="160" as="geometry"/>
                </mxCell>
                <mxCell id="11" value="" style="edgeStyle=entityRelationEdgeStyle;fontSize=12;html=1;endArrow=ERoneToMany;exitX=0.967;exitY=0.006;exitDx=0;exitDy=0;exitPerimeter=0;entryX=0.382;entryY=1.015;entryDx=0;entryDy=0;entryPerimeter=0;" edge="1" parent="1" source="7" target="9">
                    <mxGeometry width="100" height="100" relative="1" as="geometry">
                        <mxPoint x="470" y="350" as="sourcePoint"/>
                        <mxPoint x="570" y="250" as="targetPoint"/>
                    </mxGeometry>
                </mxCell>
                <mxCell id="12" value="" style="edgeStyle=entityRelationEdgeStyle;fontSize=12;html=1;endArrow=ERoneToMany;entryX=1;entryY=0.932;entryDx=0;entryDy=0;entryPerimeter=0;" edge="1" parent="1" source="7" target="4">
                    <mxGeometry width="100" height="100" relative="1" as="geometry">
                        <mxPoint x="470" y="350" as="sourcePoint"/>
                        <mxPoint x="570" y="250" as="targetPoint"/>
                    </mxGeometry>
                </mxCell>
            </root>
        </mxGraphModel>
    </diagram>
</mxfile>